<svg width="185" height="184" viewBox="0 0 185 184" fill="none" xmlns="http://www.w3.org/2000/svg">
<g clip-path="url(#clip0_1_973)">
<g filter="url(#filter0_d_1_973)">
<path d="M104.94 85.7569C115.093 90.948 123.878 98.0697 129.307 107.133C134.728 116.183 136.824 127.202 133.557 140.251L133.557 140.252C133.472 140.594 133.124 140.803 132.78 140.718C132.482 140.642 132.284 140.366 132.297 140.068L132.315 139.94C135.496 127.24 133.424 116.475 128.077 107.628C122.738 98.7953 114.154 91.9075 104.355 86.8973C94.4661 81.8417 83.3058 78.6635 72.8544 77.3305C62.4103 75.9985 52.6309 76.5036 45.5165 78.8544C45.1733 78.9681 44.9819 78.8909 44.87 78.8156C44.7332 78.7233 44.6556 78.5892 44.6358 78.5495L44.6357 78.5482C44.6021 78.4808 44.5532 78.3616 44.5546 78.2267C44.5558 78.1269 44.5833 77.9878 44.7295 77.8262L44.7998 77.7555C44.7982 77.757 44.8057 77.7508 44.8266 77.7351C44.8464 77.7202 44.8727 77.7001 44.9071 77.6765C44.9764 77.6288 45.0689 77.5686 45.183 77.4964C45.4109 77.352 45.7147 77.1672 46.0748 76.9528C46.7952 76.524 47.7301 75.9834 48.7047 75.4235C50.1621 74.5863 51.7144 73.7037 52.7654 73.0968L53.6271 72.5931C54.2998 72.1925 55.2598 71.6923 56.4076 71.0963C57.5496 70.5034 58.8666 69.8216 60.2331 69.0654C62.7898 67.6507 65.5504 65.9609 67.7027 64.0775L68.1245 63.6985C69.3716 62.5485 70.4332 61.2946 70.943 59.9498C71.4657 58.5707 71.3973 57.1181 70.4307 55.6612L70.4314 55.6618C69.4562 54.1907 67.9636 53.3672 66.1884 52.9924C64.4231 52.6197 62.3502 52.6832 60.1482 52.9982C54.5052 53.8063 47.8028 56.4305 42.0319 59.3211C36.2692 62.2078 31.3549 65.4007 29.309 67.3895L29.3083 67.3902C29.0541 67.6377 28.6494 67.6316 28.4039 67.3794C28.1571 67.1259 28.1622 66.7211 28.4167 66.4728C30.4321 64.5124 35.4348 61.2352 41.4132 58.2327C47.3838 55.2341 54.248 52.5493 59.9664 51.7306C65.3056 50.9663 69.4768 51.9047 71.4981 54.9528C72.6217 56.6473 72.7983 58.2953 72.3185 59.8886C71.8614 61.4063 70.7973 62.9093 69.2982 64.3528L68.9922 64.6405C66.8182 66.6467 63.8698 68.4815 61.0874 70.0335C59.6995 70.8077 58.3606 71.5068 57.1875 72.1207C56.312 72.5789 55.5221 72.993 54.8777 73.3527L54.2837 73.6938C53.8204 73.9687 52.9399 74.4843 51.9138 75.0776L52.237 76.0055C66.919 73.8445 87.8176 77.0022 104.94 85.7569Z" fill="black" stroke="black"/>
<path d="M146.903 106.788C147.219 106.939 147.356 107.322 147.206 107.644L147.205 107.645C143.12 116.188 139.01 124.258 136.249 133.429L136.25 133.429C136.122 133.851 135.819 135.328 135.475 136.889C135.122 138.485 134.721 140.199 134.386 141.178L134.385 141.179C134.182 141.777 133.965 142.117 133.864 142.223C133.726 142.365 133.589 142.423 133.474 142.449L133.469 142.45C133.392 142.469 133.284 142.483 133.17 142.459C133.067 142.437 132.93 142.378 132.788 142.204L132.787 142.201C132.784 142.197 132.771 142.179 132.745 142.136C132.718 142.091 132.686 142.031 132.649 141.961C132.575 141.821 132.489 141.649 132.406 141.475C132.25 141.15 132.078 140.774 132.045 140.707C130.72 137.974 129.534 135.083 128.003 132.381L128.003 132.38C124.607 126.389 119.813 120.851 113.954 117.12C113.694 116.954 113.594 116.631 113.701 116.351L113.759 116.235C113.949 115.939 114.345 115.849 114.645 116.039C120.648 119.867 125.604 125.551 129.118 131.749C130.437 134.074 131.482 136.503 132.633 138.958L133.236 140.244L133.571 138.864C134.112 136.644 134.863 133.588 135.024 133.06L135.025 133.058C137.791 123.868 141.898 115.774 146.051 107.09C146.204 106.771 146.586 106.636 146.903 106.788Z" fill="black" stroke="black"/>
</g>
</g>
<defs>
<filter id="filter0_d_1_973" x="26.7224" y="50.9785" width="121.045" height="95.993" filterUnits="userSpaceOnUse" color-interpolation-filters="sRGB">
<feFlood flood-opacity="0" result="BackgroundImageFix"/>
<feColorMatrix in="SourceAlpha" type="matrix" values="0 0 0 0 0 0 0 0 0 0 0 0 0 0 0 0 0 0 127 0" result="hardAlpha"/>
<feOffset dx="-1" dy="4"/>
<feComposite in2="hardAlpha" operator="out"/>
<feColorMatrix type="matrix" values="0 0 0 0 0 0 0 0 0 0 0 0 0 0 0 0 0 0 1 0"/>
<feBlend mode="normal" in2="BackgroundImageFix" result="effect1_dropShadow_1_973"/>
<feBlend mode="normal" in="SourceGraphic" in2="effect1_dropShadow_1_973" result="shape"/>
</filter>
<clipPath id="clip0_1_973">
<rect width="130" height="130" fill="white" transform="translate(88.916) rotate(42.6258)"/>
</clipPath>
</defs>
</svg>
