<svg width="154" height="87" viewBox="0 0 154 87" fill="none" xmlns="http://www.w3.org/2000/svg">
<path d="M26.5479 53.4031C25.6713 54.8024 26.9271 58.8122 28.7001 60.2897C30.0602 61.3947 31.0665 60.888 31.3315 58.948C31.6359 56.9033 30.1377 54.0006 28.4323 53.2711C27.1328 52.7009 26.9764 52.7296 26.5479 53.4031Z" fill="black"/>
<path d="M14.8404 54.3338C13.9637 55.733 15.2196 59.7429 16.9926 61.2204C18.3527 62.3254 19.359 61.8186 19.624 59.8786C19.9284 57.8339 18.4302 54.9313 16.7248 54.2018C15.4253 53.6315 15.2688 53.6603 14.8404 54.3338Z" fill="black"/>
<path d="M9.88193 65.7075C10.2414 67.9226 14.3541 72.0018 18.0101 73.7375C19.1376 74.3003 21.0826 74.7031 22.8021 74.7769C25.5025 74.8751 25.8859 74.7851 29.3741 73.1786C32.7215 71.637 33.2387 71.2689 34.844 69.4042C36.889 66.9907 38.8424 61.8058 38.2223 60.3601C37.6796 59.095 36.8918 59.7176 35.3133 62.8252C33.5656 66.2272 32.5918 67.4981 30.558 68.9541C28.6144 70.3254 24.9796 71.3934 22.6935 71.2776C19.9776 71.1433 14.8713 68.3874 12.0947 65.5541C10.6811 64.1275 9.64514 64.1717 9.88193 65.7075Z" fill="black"/>
<g filter="url(#filter0_d_1_977)">
<path d="M55.8794 67.4533L52.7129 46.7039L58.8341 44.0545L71.7946 60.5648L68.1751 62.1314L65.3898 58.4706L58.7363 61.3504L59.499 65.8867L55.8794 67.4533ZM58.156 57.7464L63.1594 55.5808L56.9692 47.4845L56.4901 47.6919L58.156 57.7464ZM74.0246 59.5996L65.9611 40.9698L72.6412 38.0784L83.3673 52.7118L83.8464 52.5044L76.8196 36.2699L80.2794 34.7724L88.3429 53.4022L81.6628 56.2935L70.9367 41.6602L70.4576 41.8675L77.4844 58.1021L74.0246 59.5996ZM91.8539 51.8826L83.7904 33.2527L87.3035 31.7322L90.5058 39.1309L90.9849 38.9235L93.8239 28.91L98.3217 26.9632L94.5245 39.5087L106.651 45.4778L102.02 47.4822L92.5745 42.5963L92.0955 42.8036L95.367 50.362L91.8539 51.8826ZM107.236 45.2247L104.07 24.4753L110.191 21.8259L123.151 38.3361L119.532 39.9028L116.747 36.2419L110.093 39.1218L110.856 43.6581L107.236 45.2247ZM109.513 35.5178L114.516 33.3521L108.326 25.2559L107.847 25.4632L109.513 35.5178ZM125.381 37.3709L117.318 18.7411L123.998 15.8498L134.724 30.4832L135.203 30.2758L128.176 14.0413L131.636 12.5438L139.7 31.1736L133.02 34.0649L122.293 19.4315L121.814 19.6389L128.841 35.8734L125.381 37.3709Z" fill="black"/>
</g>
<defs>
<filter id="filter0_d_1_977" x="47.8159" y="12.5437" width="91.8838" height="58.9095" filterUnits="userSpaceOnUse" color-interpolation-filters="sRGB">
<feFlood flood-opacity="0" result="BackgroundImageFix"/>
<feColorMatrix in="SourceAlpha" type="matrix" values="0 0 0 0 0 0 0 0 0 0 0 0 0 0 0 0 0 0 127 0" result="hardAlpha"/>
<feOffset dy="4"/>
<feComposite in2="hardAlpha" operator="out"/>
<feColorMatrix type="matrix" values="0 0 0 0 0.906944 0 0 0 0 0.906944 0 0 0 0 0.906944 0 0 0 0.32 0"/>
<feBlend mode="normal" in2="BackgroundImageFix" result="effect1_dropShadow_1_977"/>
<feBlend mode="normal" in="SourceGraphic" in2="effect1_dropShadow_1_977" result="shape"/>
</filter>
</defs>
</svg>
